<?xml version="1.0" standalone="no"?>
<svg
  width="600"
  height="600"
  viewBox="0 0 600 600"
  xmlns="http://www.w3.org/2000/svg"
>
  <g transform="translate(300,300)">
    <path d="M109.8,-168.5C137.7,-130.9,152.5,-92.6,169.3,-52.3C186.1,-12.1,204.8,30.3,200.1,71.3C195.4,112.3,167.4,152,130.1,162.4C92.9,172.8,46.4,153.9,12.8,136.2C-20.8,118.6,-41.5,102.2,-73.6,90.1C-105.6,78,-148.8,70.2,-176.7,43.5C-204.5,16.8,-216.8,-28.8,-202.6,-63.7C-188.3,-98.5,-147.3,-122.4,-109.1,-156.7C-70.9,-191,-35.5,-235.5,2.7,-239.3C40.9,-243,81.9,-206.1,109.8,-168.5Z" fill="#FE840E" />
  </g>
</svg>
    