<?xml version="1.0" standalone="no"?>
<svg
  width="600"
  height="600"
  viewBox="0 0 600 600"
  xmlns="http://www.w3.org/2000/svg"
>
  <g transform="translate(300,300)">
    <path d="M125.1,-162.1C142.7,-134.4,124,-76.5,120.2,-31.1C116.4,14.3,127.5,47.1,122.9,85.8C118.3,124.4,97.9,168.9,65.8,180.4C33.6,192,-10.4,170.7,-64.6,159C-118.8,147.3,-183.2,145.1,-207.2,114.4C-231.1,83.7,-214.5,24.4,-186.7,-15.5C-159,-55.4,-120,-76,-87,-101C-54,-126,-27,-155.5,13.4,-171.5C53.8,-187.4,107.6,-189.9,125.1,-162.1Z" fill="#FE840E" />
  </g>
</svg>
    